<svg width="363.1" height="363.1" viewBox="0 0 363.1 363.1" version="1.1"><path d="M 275.1349598304878 26.565376254526512 C 97.02327120922 20.891114270234254 -0.15430636582198076 170.83433631941048 78.18426019863945 331.9480846663861 257.0588781730119 348.20164540757844 363.69663023775865 203.1084743669219 294.4340741393526 36.41341870603006 115.499203219306 9.481791592300652 -0.3169018951988676 149.0726920598073 59.45893541791996 320.768177150882 237.74340545354335 358.42624749392917 362.40886045412697 224.97037078647116 312.48922736418154 48.88546541267641 135.5700417819428 0.5034814522364002 2.4299079576453266 127.2145141115092 42.167242823110485 307.0507982674543 217.00580533961434 366.10302504082506 358.2020466408443 246.7203806771218 328.927781517903 63.79454046261266 156.88185493233323 -5.8231643510365245 8.089966454927236 105.6770249262478 26.66739593114582 291.010202452081 195.21576544671268 371.03785516427024 351.1031955139009 267.94166815743813 343.407935798965 80.90026766603837 179.0512223846225 -9.331645305222821 16.60553821367708 84.87437809861133 13.282887438612988 272.91158782690627 172.76834205812537 373.09279944647335 341.2004802582111 288.22504044209484 355.6262980228074 99.91406250507848 201.67361069136336 -9.913366252509093 27.8584707787721 65.20855662903072 2.295329153035368 253.06536209477213 150.07533663069893 372.1892246254406 328.6414091737379 307.17793157289515 365.3245951379988 120.50537627387149 224.33219777891946 -7.520108830574827 41.67268468137797 47.06055582219551 -6.0617732401261435 231.8204231302611 127.55631848991086 368.3096123924738 313.62969146430754 324.433005240978 372.29538008492943 142.30885353030828 246.6069540235082 -2.165170764918429 57.81793385672182 30.782041176132452 -11.608178376689835 209.55660297499261 105.62948945347678 361.4980228909317 296.4208718555165 339.6561912106971 376.3866140086235 164.9322451078769 268.0837822413444 6.076848119127959 76.0147515668169 16.687660934504777 -14.220891208563216 186.6764412027152 84.702588872584 351.8592051473356 277.3168316059572 352.55398241022414 377.5050270206163 187.96490337803684 288.36351826907895 17.07160555568055 95.94047207558636 5.048178614046492 -13.836884839424641 163.5964674020571 65.1640362237013 339.5563763645698 256.65927727029396 362.8798358459911 375.61818682500706 210.98667451418652 307.07059721078247 30.62788604764205 117.23619575203931 -3.9154269214480166 -10.454505138441078 140.7381825626163 47.37450295895508 324.8077201891351 234.82235980962258 370.43953979591913 370.7552320511474 233.57699442089137 323.8611978489026 46.50171579464438 139.5145454812032 -10.036767025799975 -4.133529092696136 118.5189352487057 31.659095945103473 307.8816811635379 212.20458490035074 375.0954318463424 363.0062555134602 255.3239909116611 338.43068900203195 64.40163315586629 162.3680456375052 -13.207651009748929 5.006123551737289 97.34289048648839 18.300321685404498 289.0911580474242 189.22019020485172 376.76937681034997 352.5203512751543 275.8333947248948 350.5202165323834 83.99500000000275 185.37794175165868 -13.380418062307314 16.786997231274142 77.59228723835437 7.531983891052846 268.7867220240776 166.29017663550525 375.4444399070907 339.5023677498455 294.7370660553473 359.92228795588596 104.91521720926917 208.123269644535 -10.56894244035081 30.977969967714102 59.619174234091346 -0.4658528125306134 247.34900653450003 143.83318804462388 371.16521826035694 324.208436561506 311.70095136735176 366.4852328219083 126.76968834420028 230.1899773961956 -4.848289152281552 47.299302269218515 43.73780389675835 -5.570722798347049 225.18043317942355 122.25643715332032 364.03682223368025 306.94037294519796 326.4322971817612 370.1164407795799 149.1483594285538 251.1799021789133 3.64697400393959 65.42875741658102 30.21785033945119 -7.720357565713783 202.69645244353853 101.94687482410987 354.2225267847539 288.03906758105023 338.6859630565789 370.7843050587834 171.63265030770359 270.71940673800214 14.725773635863277 85.00866207309285 19.27860019312493 -6.913963329075045 180.31648863116774 83.2627949912885 341.9401413166517 267.87701142442893 348.26969480096375 368.5188264472172 193.80458432385075 288.46748710703326 28.14477487804612 105.65375587534572 11.084244694804283 -3.2121472341314643 158.4547851399233 66.52605878193782 327.4571738560643 246.8501138836367 355.0482407022736 363.410861193215 215.25591832397055 304.1231738628982 43.61378346070342 126.95966146274637 5.740378424876809 3.2645099996432236 137.51134889290256 52.01510875443327 311.08489124556047 225.36899021748508 358.9462177734349 355.61002503688115 235.59707437188706 317.4320636570841 60.8021918364887 148.51179264142098 3.2917847881015234 12.338208442278074 117.86319133583433 39.958927996063835 293.17140087266483 203.84990595738796 359.9496612617065 345.3212941915871 254.4656780042029 328.19183562152267 79.3463328370733 169.89450833988573 3.721561289649202 23.777955429218082 99.85605789928373 30.532079369934763 274.093900785364 182.7055742475084 358.1062183786187 332.80037198578674 271.53451539104447 336.25662819198476 98.85758442597677 190.7003139176086 6.9516094025801465 37.304781947719164 83.79682832229982 23.850937865278894 254.25026342338342 162.3360060665312 353.52397586008357 318.34791646642066 286.51873320396976 341.5401755110431 118.93105235676992 210.53890936986838 12.844484922556461 52.5980409931791 69.94675690956308 19.971204220549737 234.0501332423326 143.1196132440649 346.3689399728964 302.3027490186479 299.182120139184 344.0176284000271 139.1546442865414 229.04588609483267 21.206575737990875 69.30265631394988 58.51570489726973 18.886761245124262 213.90572990637455 125.40475999691209 336.8612163657076 285.0341864634492 309.3423276100645 343.7260124174221 159.11833941982633 245.89088012748914 31.792545492987074 87.03716890623274 49.657496958162966 20.52990609009305 194.22255622377415 109.50195044505766 325.26996513821086 266.9336586916565 316.874908750853 340.76330420332573 178.42345227779353 260.7850000000044 44.31095426228265 105.40241058685838 43.46651086908483 24.77296267190283 175.39021342704189 95.6768273694411 311.9072331033541 248.40579026775066 321.71607914782555 335.2861365763219 196.69168783810036 273.48736147448693 58.430941649517564 123.99061934322475 39.97558394113571 31.43124911294595 157.77352565853025 84.14414156252387 297.1207898997767 229.8591372404194 323.8641291618169 327.5061721140146 213.57378812420737 283.81057905591024 73.78983419115441 142.39480025236435 39.15529246940841 40.267346020023695 141.70417060250537 75.06283179338942 281.2861168651407 211.69677934518842 323.3794458112013 317.6852136233198 228.75757731268433 291.6250850979526 90.00151808643434 160.21812882297354 40.91463173125081 50.996583260829084 127.47300417249188 68.53233302653405 264.79771694091505 194.30697267081308 320.3831313926042 306.12914740987253 241.97522346362666 296.8621710690908 106.66540051964824 177.08319081317043 45.10309451772673 63.29363619336419 115.32325416999143 64.59020552182737 248.05992993248137 178.05406855348608 315.05423575048565 293.18084102569577 253.00954987190872 299.51567169379496 123.37576857549601 192.6408540045184 51.51411640839126 76.80009760232363 105.44474110367119 63.211150285133485 231.47744984637407 163.26990091406154 307.62564877250577 279.2121406778552 261.69924752122625 299.6422407210403 139.73134428889625 206.57857307542682 59.88982659141085 91.13286941318513 97.96926420252795 64.30744755963335 215.44574948674 150.24583649485874 298.37872868966497 264.61513422637927 267.9428618576417 297.36019645254146 155.34482796042508 218.6279385414136 69.92701458248345 105.89319905782232 92.96726744339131 67.73082521068962 200.34162181080634 139.22567060251225 287.63676950992954 249.7928632447987 271.7014516807781 292.84694531066384 169.8522196757216 228.5712945572712 81.28419628727697 120.67616956803839 90.44587458001287 73.27573354887647 186.51404758952484 130.3995352177026 275.75743684314375 235.14968157806106 272.9998449136489 286.33502204379033 182.92171107830504 236.2472679703626 93.58963803747561 135.08044042765317 90.34835419713046 80.68397296003563 174.27559465157864 123.89896696717493 263.1243249450958 221.08146789262346 271.9264448418638 278.1068150491954 194.26194586030962 241.55507206383047 106.45017502940183 148.7180281997346 92.55504625706835 89.65059127261469 163.89454544462416 119.79325981671256 250.1378085226077 207.9659056301558 268.63157055163094 268.48807413887715 203.62945807811116 244.45747254883807 119.46064147925868 161.22391216905584 96.885751030977 99.83093968834663 155.58793695061343 118.08720185069866 237.20538025259555 196.15304538158892 263.3243461580906 257.84032529250015 210.8351121009377 244.982330110636 132.21371419801375 172.26525082522156 103.10355031130204 110.84874990961958 149.5156803465806 118.72026763183533 224.7316786906759 185.95636191168805 256.2681843911052 246.5523419716635 215.74938651787326 243.22266268127504 144.30995953544573 181.55000000000345 110.9200000000002 122.30507136131489 145.77590749443 121.56730790803127 213.1084209585975 177.64451088578537 247.77494057965419 235.0308448844414 218.3063663389935 239.3352010530009 155.36786602921296 188.83473281964316 120.00160317484796 133.78788663097626 144.40166772889398 126.44074742387173 202.70446006166253 171.43397886746357 238.1978424341656 223.69062120919364 218.50633293636207 233.53744287507232 165.0336418266292 193.93147520818917 129.97744416194814 144.88220589088397 145.35907192166172 133.09426990012184 193.85618773169583 167.482804540255 227.92332866958455 212.944269789143 216.41686892174988 226.10324188014624 172.99055714610083 196.71338827056354 140.44783757323566 155.18042751056032 148.54695191767632 141.227937487928 186.85850023759423 165.88552961166212 217.36195486779337 203.19179033601532 212.17242503545302 217.3570007390107 178.96761775167317 197.11915019806608 150.99382225948338 164.29274264074326 153.79807270771337 150.4946608142067 181.95653665925227 166.66951481623178 206.9385475105537 194.8102419476145 205.97232756087578 207.66656661344587 182.74736557718722 195.15591500664814 161.18730919470968 171.85735649648132 160.88190270214298 160.50790573779847 179.33838677418186 169.7927302507444 197.081806335492 188.14369904305042 198.0772371838026 197.4349576465665 184.1726171216517 190.90075299985656 170.6016749072899 177.55029855285403 169.5089148190999 170.85049474402194 179.1289491378139 175.14310042062843 188.2135706479217 183.49373102872028 188.80410295543055 187.0910756979125 183.1519688230427 184.50050784291264 178.82257860444906 181.09459797154426 179.33635843179678 181.08433510340072 181.38509941153862 182.53945338030448 180.73797659627033 181.11062559146274 178.51968745355796 " stroke="rgba(0,0,0,.4)" fill="none"></path></svg>